# xmcd
#
# Track frame offsets:
# 150
# 37558
# 63804
# 88211
# 115827
# 149246
# 172985
# 201378
# 223055
# 245206
# 267621
# 291510
#
# Disc length: 4277 seconds
#
#
# Revision: 0
# Processed by: cddbd v1.5.2PL0 Copyright (c) Steve Scherf et al.
# Submitted via: FreeRIP 2.96 
#
DISCID=c510b30c
DTITLE=Philipp Vandenberg - Das vergessene Pergament CD2v6
DYEAR=2006
DGENRE=Speech
TTITLE0=14 2 Wochen nach der Begegnung
TTITLE1=15 Es war Mai geworden
TTITLE2=16 Viele Tage später
TTITLE3=17 Ullrich's Schneider hatte den kostbaren Stoff
TTITLE4=18 Der Riese, der von Ullrich von Ensingen
TTITLE5=19 In aller Herrgottsfrühe
TTITLE6=20 Auf einem Tisch in der Mitte des Raumes
TTITLE7=21 Versteht Ihr, worum es in dem Dokument geht ?
TTITLE8=22 Längst war es Abend geworden
TTITLE9=23 Der Tag neigte sich
TTITLE10=24 Als Afra in Begleitung der beiden Männer
TTITLE11=25 Auf der Suche nach einer Anstellung
EXTD=gelesen von Katrin Fröhlich
EXTT0=
EXTT1=
EXTT2=
EXTT3=
EXTT4=
EXTT5=
EXTT6=
EXTT7=
EXTT8=
EXTT9=
EXTT10=
EXTT11=
PLAYORDER=
